<svg xmlns="http://www.w3.org/2000/svg" viewBox="0 0 216.28 199.3"><defs><style>.a{fill:#2e5077;}</style></defs><title>cygnusBlue</title><path class="a" d="M257.12,146.46c-2.36,21.44,34.42,40.14,102,63.86l33.93,12.25c9,2.83,14.78-.77,20.5-8.25,0,0,15.09-19.93,22.86-26.63s13.49-6.75,21-2.7c14,3.25,7.54,8.12-2.85,5.73-7-1.61-22.52,10.82-28.83,21.48,0,0-20.82,32.16-26.62,39.27s-7.38,7.19-21.32,13.54-17.16,8-25.56,14.56c4.35-8.31,13.88-14.84,26.75-20.21,6.84-3.53,11.29-5,16.72-10.55s18.21-25.41,18.21-25.41a43.86,43.86,0,0,1-24.37,4.16c-9.34-.94-72-23-100.11-37.74S264.77,174,256,161.5c-0.41,7,4.19,16.77,11.19,24.18s37.95,19.37,63.88,30.5c-10.3,2.22-26.17.41-48.36-6,26.16,15.26,53.32,21,81.74,14.8-0.36,7-12.3,11.31-30.5,14.08,12.33,2.48,27.43,1.87,46.74-3.43-7.49,5.11-20,7.86-30.68,8.84s-35.19-6.17-44.57-13.71c12.88,5.06,28.18,5.62,46.2,1.08-22.37.26-37.12-1.57-45.29-5.23q-28.28-10.53-42.59-28.87A236,236,0,0,0,310.36,213c-21.45-7.92-39.16-15.83-48.18-23.73-7-7.21-12.19-15.62-13-27.07C249.19,153.22,252.16,149.94,257.12,146.46Z" transform="translate(-249.19 -85.06)"/><path class="a" d="M356.38,246.85q-7.4,4.15-14.8,15.52c-6.08,10.42-14,17-23.1,20.75,7.33,2.85,17.14.52,28.33-4.69-5.85,1.68-11.3,2.63-15.88,2-0.68-1.64,4-5.13,10.29-9.2a23.72,23.72,0,0,0,6.78-9.56C348.82,257.74,352,252.62,356.38,246.85Z" transform="translate(-249.19 -85.06)"/><path class="a" d="M359.23,208.42a52.77,52.77,0,0,1-9.53-28.15A92.76,92.76,0,0,1,351,160c5,11.31,10.08,20,15.38,22.43-8.63-10.85-13.64-23.94-14.85-39.39a53.6,53.6,0,0,1,2.7-21.19c3,11.66,7.1,20.76,12.5,26.71-5.67-13.52-9.5-27-6.75-40.1a78.26,78.26,0,0,1,7.57-23.37c3,13.35,14.84,38.71,21.31,46s6.49,17.22,6.93,25.13c-0.23,13.72-3.58,35.28-3.11,41.74a60.07,60.07,0,0,0,4.87,18.79c2.29,3.41-5.52,4.29-7.22,2.41s-5.34-19-5.17-22.6,1.44-27.53,4.34-40.33S374.27,120.93,371.69,115a111.11,111.11,0,0,1-4.7-14.44c-1.48,2.81-2.26,8.9-2.29,18.49,0.85,11.73,3.91,25.57,7.81,40.21-5.53-4.44-11.17-11.42-16.91-20.66,5,23.24,10.85,41.22,18.15,51-6.72-.17-13.78-6.42-21-15.62C353.12,183.56,355.63,195.41,359.23,208.42Z" transform="translate(-249.19 -85.06)"/></svg>