<svg style="border-radius: 4px;" id="Layer_1" data-name="Layer 1" xmlns="http://www.w3.org/2000/svg" viewBox="0 0 4343.31 1192.13">
  <defs>
    <style>.cls-1{fill:#f4b004;}.cls-1,.cls-2,.cls-3,.cls-4,.cls-5,.cls-6{fill-rule:evenodd;}.cls-2{fill:#f5bd2d;}.cls-3{fill:#0f2e54;}.cls-4{fill:#0f2e53;}.cls-5{fill:#fefefe;}.cls-6{fill:#f2af05;}</style>
  </defs>
  <title>stellar_fox_2 [Converted]</title>
  <path class="cls-1" d="M-1863.33,992.13V-198.25H2479.89V992.13H-1863.33ZM-914.72,125c-2-2.37-1.44-4.7-1.46-6.87-0.06-9.48,0-19,0-28.46-0.05-11.53,1.13-10.27-10.31-10.28q-122.19,0-244.38,0c-10.28,0-8.08,1.21-13-8.08-18.06-34-46.71-52.12-84.94-55.37-44-.34-76.63,18.57-96.86,57.83-2.34,4.54-4.87,6.19-9.53,5.67a45.49,45.49,0,0,0-5,0h-143.12c-2.5,0-5,.07-7.51.23a2.18,2.18,0,0,0-2.16,2.12c-0.15,2.78-.21,5.57-0.21,8.36q0,110.89-.06,221.79c0,2.51,0,5,0,7.53-0.11,4.76-.13,4.76-4.52,5.06-1.11.07-2.23,0-3.34,0.13-40.48,3.25-68.71,37.56-64.45,76.79A68.53,68.53,0,0,0-1542,463c9.5,0.7,8.65-.48,8.71,9.5,0,1.67,0,3.35,0,5q0,103.36,0,206.72c0,2.23,0,4.46,0,6.7,0.12,4.51.41,4.82,4.71,5,2.23,0.07,4.46,0,6.69,0,50.5,0,101,.16,151.48-0.18,7.06,0,11.8,1.2,13.72,8.46a21,21,0,0,0,2.21,4.49c23.73,43.16,60.16,67,109.22,71,26.89,2.21,52.19-4.06,75.49-17.43a130,130,0,0,0,52.59-55.8c1.71-3.43,2.29-8,5.69-9.9s7.65-.66,11.53-0.66q87.46-.06,174.92,0c9.56,0,8.91.57,8.91-9.21q0-70.3,0-140.61c0-10.6,0-21.2,0-31.8,0-1.87-.47-3.93,1.22-5.45,88.39,18,166-23.4,205.5-82.67,40.82-61.21,45-139.38,7.57-206.35a189,189,0,0,0-77.08-75.74C-821.84,121.09-867.4,115-914.72,125Zm836.6,186.19v0h17.57c1.67,0,3.35,0,5-.07,2.18-.14,3-1,3-3.14,0-.56,0-1.11,0-1.67-1.07-22.12-9.3-41.1-24.89-56.87-11.8-11.94-25.89-20.22-41.58-25.81-32.75-11.66-66-12.8-99.54-3.86-16.89,4.5-32.54,11.62-46.21,22.67-16,12.9-26.52,29.23-30.69,49.43a100,100,0,0,0-.82,34.94c3.1,21.12,12.62,38.46,29.59,51.58A101,101,0,0,0-244.2,391.2c14.65,6.24,29.84,10.85,45.18,15,16.4,4.46,33,8.09,49.23,13.28A151.9,151.9,0,0,1-128,427.89a53.18,53.18,0,0,1,16.14,11.73,31.63,31.63,0,0,1,8.47,21.25c0.23,12.63-4.67,22.73-14.46,30.54a64.17,64.17,0,0,1-19.12,10.15,114,114,0,0,1-61.81,4c-9.62-2-18.86-5-27.33-10.08-11.39-6.8-19-16.21-20.23-29.93-0.34-3.73-.8-4-4.84-4.06-13.95-.06-27.89,0-41.84,0a14.64,14.64,0,0,0-1.67.09,2.71,2.71,0,0,0-2.67,2.64,15.6,15.6,0,0,0,0,2.5c1.43,21.68,9.16,40.59,24.59,56.18a110,110,0,0,0,39.9,25.44c32,12.11,64.68,13.57,97.84,5.68,18.12-4.31,34.87-11.7,49.43-23.5,16.37-13.27,27.42-29.94,31.48-50.82A101.62,101.62,0,0,0-53.24,448C-56,425.21-66.14,406.74-84.75,393.1a107.86,107.86,0,0,0-21.95-12,309,309,0,0,0-39.57-13.4c-14.79-4-29.66-7.74-44.47-11.66a197.36,197.36,0,0,1-25.37-8.42c-7.78-3.24-15-7.36-20.95-13.49a31.69,31.69,0,0,1-9.33-22.57c-0.12-12.65,4.9-22.68,14.73-30.41,7.58-6,16.31-9.59,25.49-12.18,15.82-4.46,32-4.86,48.13-2.93a85.65,85.65,0,0,1,34,11.06c11.7,6.95,19.4,16.56,20.66,30.58,0.28,3.13.84,3.53,4.38,3.58C-92.07,311.29-85.09,311.22-78.12,311.22ZM906,326.28a6.85,6.85,0,0,1-1.85-.25q-3-2.87-6-5.79a94.75,94.75,0,0,0-43-24.71,129.86,129.86,0,0,0-69.42,1C719.68,315.31,678.6,384,692.39,452c6.25,30.78,22,55.78,45.81,75.8,31.44,26.44,67.88,35,108,28.54,20.66-3.33,38.44-12.9,53.27-27.8,1.67-1.68,3-3.93,6.17-4.89,0.63,3.27.37,6.26,0.39,9.21,0.05,5.3,0,10.6.07,15.9,0,2,1.13,3,3.11,3.1,1.39,0,2.79.07,4.18,0.07q17.57,0,35.14,0c8.51,0,8.19.58,8.19-8.17q0-1.67,0-3.35V308.6c0-1.4,0-2.79,0-4.18-0.11-6.6-.13-6.7-6.38-6.73-12.83-.06-25.66,0-38.49,0-1.11,0-2.23.08-3.33,0.19a2.27,2.27,0,0,0-2.22,2.08,46.08,46.08,0,0,0-.25,5C906,311.89,906,318.85,906,326.28ZM419.75,378.72a44.91,44.91,0,0,0-1.94-4.23c-4.45-7.41-8.81-14.88-13.47-22.15-32.43-50.61-95.86-73.95-155.53-53.84-63.19,21.29-100.22,88.19-87.18,154.09,9.44,47.68,54.38,101.85,121.91,105.55a149.77,149.77,0,0,0,88.56-22.49,143.09,143.09,0,0,0,41.42-38.46c2.55-3.54,2.49-4-1.46-6.34q-17.53-10.61-35.13-21.11-1.08-.64-2.19-1.23a2.38,2.38,0,0,0-3,.39c-0.78.79-1.46,1.68-2.17,2.54-18.86,22.83-43.28,34.52-72.69,35.92-21.18,1-40.22-4.87-56.59-18.63-1.2-1-2.82-1.83-2.4-4.6,11.62-6.75,23.63-13.73,35.66-20.69q18.46-10.68,36.95-21.32l36.2-20.93q18.47-10.67,36.93-21.35C395.61,392.87,407.79,386.16,419.75,378.72ZM1929.26,424.6c1.87-70.07-59.14-133.59-133.68-133.45s-135.19,64.09-133,134.12c-1.73,70,58.42,133.52,133.66,133.33C1870.4,558.42,1931.27,495.73,1929.26,424.6ZM1621.52,221.69h-9.6q-100.84,0-201.69,0c-11.54,0-10.21-1.15-10.22,10.31q0,154.82,0,309.65c0,2,0,3.91,0,5.86,0.14,3.77.58,4.31,4.45,4.33q18.41,0.11,36.82,0c10.23,0,9.44,1.23,9.45-9.37q0-62.77,0-125.53c0-12.62-1.48-11.36,11-11.37q65.7-.07,131.39,0c2.23,0,4.47.05,6.69,0,3.82-.16,4.31-0.58,4.33-4.51q0.11-18.41,0-36.82c0-10.66,1-9.7-10.07-9.7q-66.53,0-133.06,0c-2.51,0-5-.06-7.52-0.16a2.54,2.54,0,0,1-2.63-2.64c-0.12-2.51-.14-5-0.14-7.53q0-30.55,0-61.09c0-11.87-.84-10.71,10.88-10.71q74.48,0,149,0c2.23,0,4.47,0,6.69,0,3.69-.13,4-0.52,4.2-4.55,0-1.11,0-2.23,0-3.35q0-16.74,0-33.47C1621.52,228.18,1621.52,225.41,1621.52,221.69ZM1964.74,551a10.64,10.64,0,0,0,1.87.72c19.24,0.07,38.48.11,57.73,0.22a6.24,6.24,0,0,0,5.67-2.81c1.1-1.6,2.42-3.06,3.62-4.6q27.31-34.95,54.62-69.89c7.38-9.41,5.79-9.54,13.46.29,18.71,24,37.46,47.9,56,72,2.86,3.72,5.85,5.16,10.51,5.09,16.73-.26,33.47-0.1,50.21-0.11,1.39,0,2.79,0,4.18-.11a1.48,1.48,0,0,0,1.08-2.41q-2.45-3.39-5-6.68-43.17-55.47-86.34-111c-5.88-7.57-6.21-5.76.07-13.84q41.86-53.84,83.78-107.64c2.4-3.08,4.82-6.15,7.14-9.29a3.61,3.61,0,0,0,.59-2.26c-0.09-1.13-1.21-1-2-1q-14.23-.06-28.45-0.05c-9.21,0-18.41.08-27.62,0a6.91,6.91,0,0,0-6.4,3.09c-0.78,1.15-1.7,2.21-2.56,3.31q-26.74,34.33-53.53,68.62c-2.67,3.39-4.48,7.68-8.8,9.58-3.53-2.41-5.55-6.15-8.1-9.4q-27.65-35.21-55.11-70.57c-2.4-3.09-4.88-4.74-9-4.69-17.57.22-35.15,0.09-52.73,0.09a8.25,8.25,0,0,0-1.67,0,4.63,4.63,0,0,0-2.17.75c-0.71.66-.22,1.59,0.26,2.26,1.14,1.58,2.34,3.12,3.54,4.66L2056.43,417c1.37,1.76,2.7,3.55,4.1,5.29a3.75,3.75,0,0,1,0,5.27c-1.41,1.73-2.76,3.51-4.13,5.27Q2013.5,488,1970.58,543.1C1968.74,545.47,1967,547.93,1964.74,551ZM1063.4,321.36c-0.21-3.42-.41-5.29-0.43-7.17-0.06-4.18,0-8.37-.08-12.55-0.09-3.15-.81-3.9-4.08-3.92q-21.34-.1-42.68,0c-3.62,0-4.08.67-4.22,4.65-0.07,2,0,3.9,0,5.86q0,116.75,0,233.49c0,2,0,3.91,0,5.86,0.15,3.7.64,4.27,4.54,4.29q17.58,0.11,35.15,0c12.8-.07,11.31,1.47,11.33-10.94q0.08-56.07,0-112.14c0-5,0-10.05.43-15.05a81.8,81.8,0,0,1,11.91-37.07c9-14.46,21.09-25.23,37.46-30.54a76.71,76.71,0,0,1,44.54-1c18.46,5,32,16.41,41.73,32.65,1.39,2.31,1.89,5.28,4.59,6.82a15.63,15.63,0,0,0,2.34-.89q18.14-10.4,36.26-20.85c1-.56,1.9-1.16,2.81-1.8a2.34,2.34,0,0,0,.87-2.93,21.75,21.75,0,0,0-1.45-3c-13.85-24.58-33.15-43.29-59.28-54.42-21.62-9.21-44.27-11.15-67.3-7.89-19.28,2.73-36.23,10.77-50.16,24.68C1066.73,318.47,1065.67,319.33,1063.4,321.36Zm-981.17,130q0-47.26,0-94.52c0-8.31-.53-8,8.33-8,8.36,0,16.73,0,25.09,0,4,0,4.64-.6,4.66-4.2q0.11-21.33,0-42.66c0-3.33-.76-4-3.83-4.16-2.23-.1-4.46-0.05-6.69-0.06-7.53,0-15.06.05-22.58,0-4.52-.05-4.89-0.41-4.95-4.66-0.09-6.13,0-12.27,0-18.4,0-16.17,0-32.34,0-48.51,0-3.79-.54-4.31-4.42-4.33-13.94-.06-27.88,0-41.82,0-0.56,0-1.11.06-1.67,0.1a2.53,2.53,0,0,0-2.58,2.64c-0.1,2.23-.13,4.46-0.13,6.69q0,29.28,0,58.55c0,8,.23,8-7.65,8-8.64,0-17.29-.05-25.93,0-3.91,0-4.62.64-4.63,4.18q-0.1,21.33,0,42.66c0,3.54.72,4.15,4.62,4.2,7.81,0.09,15.61,0,23.42,0,11.31,0,10.16-1,10.16,10.47q0,90.34,0,180.67c0,2.51-.05,5,0,7.53,0.13,3.88.54,4.39,4.35,4.41,13.94,0.06,27.88,0,41.82,0a16.12,16.12,0,0,0,1.67-.09,2.58,2.58,0,0,0,2.65-2.6c0.1-2.5.14-5,.14-7.52Q82.24,496.5,82.23,451.34Zm433.33-63.56V234.68c0-2,0-3.9,0-5.86-0.08-7-.09-7.08-6.77-7.12-9.2-.05-18.4,0-27.61,0-4.46,0-8.92,0-13.38.08-1.92,0-3.15,1-3.21,3-0.08,2.51-.11,5-0.11,7.53q0,154.35,0,308.71c0,1.12,0,2.23,0,3.35,0.08,7.47.08,7.52,7.2,7.55q17.15,0.06,34.3,0c10.36,0,9.57.92,9.58-9.35Q515.57,465.16,515.56,387.78Zm119.49-.93q0-77,0-154c0-2.23,0-4.47,0-6.69-0.13-3.88-.54-4.4-4.31-4.42q-18.41-.11-36.83,0c-10.46,0-9.46-1-9.47,9.36q0,155.67,0,311.34c0,2.23,0,4.46.12,6.69a2.5,2.5,0,0,0,2.55,2.67c1.95,0.1,3.9.13,5.85,0.14,10.88,0,21.76,0,32.64,0,10.37,0,9.47,1,9.47-9.37Q635.08,464.68,635.05,386.85ZM-480,411.13v-70.3q0-138.09,0-276.17a66.77,66.77,0,0,0-.29-8.35,6.12,6.12,0,0,0-5.93-4.94A6.22,6.22,0,0,0-492,56.42a61.09,61.09,0,0,0-.23,7.52q0,60.26,0,120.51,0,286.21,0,572.43c0,2.79-.1,5.59.15,8.36a6.1,6.1,0,0,0,6.05,5.73,6.14,6.14,0,0,0,5.95-5.85c0.24-2.77.15-5.57,0.15-8.36Q-480,583.95-480,411.13Z" transform="translate(1863.33 198.25)"/><path class="cls-2" d="M-1863.33,992.13H2479.89c0,0.56.22,1.33-.06,1.61s-1.06.06-1.61,0.06h-4334c-2.51,0-5,0-7.53-.07C-1863.34,993.73-1863.33,992.68-1863.33,992.13Z" transform="translate(1863.33 198.25)"/><path class="cls-3" d="M-914.72,125c47.32-10,92.88-3.94,135.82,19a189,189,0,0,1,77.08,75.74c37.46,67,33.24,145.15-7.57,206.35-39.53,59.27-117.11,100.64-205.5,82.67-1.69,1.53-1.21,3.58-1.22,5.45,0,10.6,0,21.2,0,31.8q0,70.3,0,140.61c0,9.77.65,9.21-8.91,9.21q-87.46,0-174.92,0c-3.88,0-8.19-1.2-11.53.66s-4,6.47-5.69,9.9a130,130,0,0,1-52.59,55.8c-23.3,13.38-48.6,19.64-75.49,17.43-49.07-4-85.49-27.88-109.22-71a21,21,0,0,1-2.21-4.49c-1.92-7.27-6.66-8.51-13.72-8.46-50.49.33-101,.18-151.48,0.18-2.23,0-4.47,0-6.69,0-4.3-.14-4.59-0.45-4.71-5-0.06-2.23,0-4.46,0-6.7q0-103.36,0-206.72c0-1.67,0-3.35,0-5-0.06-10,.78-8.79-8.71-9.5a68.53,68.53,0,0,1-63.6-61.55c-4.26-39.23,24-73.55,64.45-76.79,1.11-.09,2.23-0.05,3.34-0.13,4.38-.29,4.41-0.3,4.52-5.06,0.06-2.51,0-5,0-7.53q0-110.89.06-221.79c0-2.79.06-5.58,0.21-8.36a2.18,2.18,0,0,1,2.16-2.12c2.5-.16,5-0.23,7.51-0.23h143.12a45.49,45.49,0,0,1,5,0c4.67,0.52,7.19-1.13,9.53-5.67,20.23-39.26,52.86-58.18,96.86-57.83,38.23,3.25,66.88,21.33,84.94,55.37,4.93,9.29,2.73,8.07,13,8.08q122.19,0.07,244.38,0c11.44,0,10.26-1.25,10.31,10.28,0,9.49,0,19,0,28.46C-916.16,120.33-916.73,122.66-914.72,125Zm229.54,192C-686,211.24-770.86,129.45-872.66,129.73c-100.51.27-186.82,80.84-186.87,186.88,0,102.76,82.63,187,186.48,187.24C-773.37,504.13-686,424.79-685.18,317Zm-427.09,326.1c-2.88-70.85-62.4-124.75-132.84-119.79-65,4.58-118.29,59.28-115.21,128.9,3.13,70.77,62.31,122.52,130.58,118.69C-1161.88,767.07-1110.44,710.85-1112.27,643.08ZM-1272.78,25.31a92.19,92.19,0,0,0-93.43,89.92c-1.14,47.79,36.14,93.4,90.86,94.19A91.71,91.71,0,0,0-1182,119.48,91.84,91.84,0,0,0-1272.78,25.31Zm-263.33,308.6c-30.5-1-60.31,24-60.88,59.25-0.49,30.9,23.67,61,60,61s60.42-29.7,60.47-59.77C-1476.41,360-1504.87,333.43-1536.11,333.91Zm320.8,176.39c-1.44-14.19-2.73-27.23-4.08-40.27-2-19.14-4-38.28-6-57.42-1.91-18.59-3.72-37.19-5.64-55.77-2.5-24.13-5.08-48.26-7.6-72.39q-3.38-32.45-6.7-64.91c-0.48-4.66-.8-4.84-5-4-2.72.58-5.45,1.16-8.19,1.6-3,.49-6.08.82-9.11,1.23a2.5,2.5,0,0,0-2.45,2.76c0,0.83.06,1.67,0.11,2.5,1.33,20,2.71,40.07,4,60.12q2.92,46.35,5.7,92.71c0.62,10,1.28,20,1.93,30.06q2.26,35.07,4.53,70.15c0.73,11.41,1.39,22.83,2.17,34.24,0.18,2.66,1.19,3.55,3.76,3.22,8.93-1.14,17.81-.67,26.7.37a32.93,32.93,0,0,0,4.17.27,1.62,1.62,0,0,0,1.63-1.5A27.38,27.38,0,0,0-1215.31,510.3Zm89.16,61.41c2.19-1.76,4-3.12,5.65-4.55l115.29-96.57c0.85-.71,1.73-1.41,2.55-2.16,1.85-1.69,1.94-2.45.38-4.1s-3.1-3.21-4.73-4.72a193.14,193.14,0,0,1-28.56-33.69c-4-5.94-3.32-6.89-9.15-.48q-52,57.16-104.07,114.3c-1.08,1.18-2.65,2.14-2.45,4.66C-1141.68,551.95-1133.82,561.65-1126.15,571.71Zm-227.19-391.06a19.77,19.77,0,0,0-2.6,1.82q-72.3,75.05-144.56,150.14a1.48,1.48,0,0,0-.45.69,4.19,4.19,0,0,0,.39,1.23c2.1,1.59,4.54,3.4,6.94,5.27,2.57,2,5.1,4.08,7.56,6,15.37-13.13,149.24-139.75,153.65-145.36C-1339.82,194.61-1347,188.43-1353.34,180.65Z" transform="translate(1863.33 198.25)"/><path class="cls-4" d="M-78.12,311.22c-7,0-13.95.06-20.92,0-3.54,0-4.1-.45-4.38-3.58-1.26-14-9-23.63-20.66-30.58A85.65,85.65,0,0,0-158,266c-16.16-1.94-32.31-1.53-48.13,2.93-9.19,2.59-17.92,6.23-25.49,12.18-9.84,7.73-14.85,17.77-14.73,30.41a31.69,31.69,0,0,0,9.33,22.57c5.93,6.13,13.17,10.25,20.95,13.49A197.36,197.36,0,0,0-190.74,356c14.81,3.93,29.68,7.65,44.47,11.66a309,309,0,0,1,39.57,13.4,107.86,107.86,0,0,1,21.95,12C-66.14,406.74-56,425.21-53.24,448a101.62,101.62,0,0,1-.87,31.65c-4.06,20.88-15.11,37.55-31.48,50.82C-100.15,542.28-116.9,549.66-135,554c-33.16,7.89-65.85,6.43-97.84-5.68a110,110,0,0,1-39.9-25.44c-15.43-15.59-23.15-34.5-24.59-56.18a15.6,15.6,0,0,1,0-2.5,2.71,2.71,0,0,1,2.67-2.64,14.64,14.64,0,0,1,1.67-.09c13.95,0,27.89,0,41.84,0,4,0,4.49.32,4.84,4.06,1.26,13.72,8.84,23.13,20.23,29.93,8.47,5.06,17.71,8.1,27.33,10.08a114,114,0,0,0,61.81-4,64.17,64.17,0,0,0,19.12-10.15c9.79-7.81,14.7-17.91,14.46-30.54a31.63,31.63,0,0,0-8.47-21.25A53.18,53.18,0,0,0-128,427.89a151.9,151.9,0,0,0-21.84-8.38c-16.2-5.19-32.83-8.82-49.23-13.28-15.34-4.17-30.53-8.78-45.18-15a101,101,0,0,1-22.49-12.75c-17-13.12-26.49-30.46-29.59-51.58a100,100,0,0,1,.82-34.94c4.16-20.2,14.73-36.53,30.69-49.43,13.67-11.05,29.31-18.17,46.21-22.67,33.57-8.94,66.79-7.81,99.54,3.86,15.69,5.59,29.79,13.87,41.58,25.81,15.59,15.77,23.82,34.75,24.89,56.87,0,0.56.05,1.11,0,1.67-0.05,2.13-.84,3-3,3.14-1.67.11-3.35,0.07-5,.07H-78.12v0Z" transform="translate(1863.33 198.25)"/><path class="cls-4" d="M906,326.28c0-7.43,0-14.39,0-21.34a46.08,46.08,0,0,1,.25-5,2.27,2.27,0,0,1,2.22-2.08c1.11-.11,2.22-0.19,3.33-0.19,12.83,0,25.66,0,38.49,0,6.25,0,6.27.13,6.38,6.73,0,1.39,0,2.79,0,4.18V540.38q0,1.67,0,3.35c0,8.76.31,8.16-8.19,8.17q-17.57,0-35.14,0c-1.4,0-2.79,0-4.18-.07-2-.07-3.09-1.06-3.11-3.1,0-5.3,0-10.6-.07-15.9,0-2.95.24-5.94-.39-9.21-3.2,1-4.5,3.21-6.17,4.89-14.83,14.9-32.61,24.47-53.27,27.8-40.09,6.46-76.53-2.11-108-28.54-23.81-20-39.57-45-45.81-75.8-13.79-68,27.29-136.65,93.35-155.42a129.86,129.86,0,0,1,69.42-1,94.75,94.75,0,0,1,43,24.71q3,2.92,6,5.79A6.85,6.85,0,0,0,906,326.28Zm0,98.83c0.56-45-37.21-82.47-82.12-82.82-44.24-.34-83.29,36.21-83.31,82.56,0,45.06,36.89,83,83.06,82.78C871,507.42,906.54,468.08,906,425.11Z" transform="translate(1863.33 198.25)"/><path class="cls-4" d="M419.75,378.72c-12,7.44-24.14,14.14-36.16,21.12q-18.45,10.71-36.93,21.35l-36.2,20.93Q292,452.79,273.52,463.44c-12,7-24,13.94-35.66,20.69-0.42,2.78,1.19,3.59,2.4,4.6,16.37,13.76,35.41,19.64,56.59,18.63,29.4-1.4,53.82-13.08,72.69-35.92,0.71-.86,1.39-1.75,2.17-2.54a2.38,2.38,0,0,1,3-.39q1.11,0.58,2.19,1.23,17.57,10.54,35.13,21.11c3.95,2.39,4,2.81,1.46,6.34a143.09,143.09,0,0,1-41.42,38.46,149.77,149.77,0,0,1-88.56,22.49c-67.53-3.7-112.47-57.87-121.91-105.55-13-65.89,24-132.8,87.18-154.09,59.67-20.11,123.1,3.23,155.53,53.84,4.66,7.28,9,14.75,13.47,22.15A44.91,44.91,0,0,1,419.75,378.72ZM292.37,342.46c-35.87.05-67.76,23.06-78.51,56.89-3.66,11.54-5.14,23.38-3.16,35.49,0.91,5.54,1,5.62,6.18,2.79,0.49-.27,1-0.58,1.44-0.86L340,366.56c1-.56,1.95-1.09,2.89-1.68,3.28-2.06,3.29-2.85,0-5.44-1.31-1-2.66-2-4-3A81.26,81.26,0,0,0,292.37,342.46Z" transform="translate(1863.33 198.25)"/><path class="cls-4" d="M1929.26,424.6c2,71.13-58.87,133.82-133,134-75.24.19-135.39-63.35-133.66-133.33-2.2-70,58.46-134,133-134.12S1931.13,354.52,1929.26,424.6Zm-133.53-82.11c-44.6-.83-82.53,37.19-82.62,82.27-0.08,44,36,83,83,82.89,46.24-.12,82.9-38.5,82.63-83.28C1878.47,378.95,1840,341.49,1795.73,342.48Z" transform="translate(1863.33 198.25)"/><path class="cls-4" d="M1621.52,221.69c0,3.73,0,6.49,0,9.26q0,16.74,0,33.47c0,1.12,0,2.23,0,3.35-0.17,4-.51,4.42-4.2,4.55-2.23.08-4.46,0-6.69,0q-74.48,0-149,0c-11.72,0-10.88-1.16-10.88,10.71q0,30.55,0,61.09c0,2.51,0,5,.14,7.53a2.54,2.54,0,0,0,2.63,2.64c2.51,0.1,5,.16,7.52.16q66.53,0,133.06,0c11.1,0,10-1,10.07,9.7q0.05,18.41,0,36.82c0,3.94-.51,4.35-4.33,4.51-2.23.09-4.46,0-6.69,0q-65.7,0-131.39,0c-12.44,0-10.95-1.25-11,11.37q-0.09,62.77,0,125.53c0,10.61.78,9.33-9.45,9.37q-18.41.09-36.82,0c-3.86,0-4.3-.56-4.45-4.33-0.07-2,0-3.91,0-5.86q0-154.82,0-309.65c0-11.46-1.32-10.31,10.22-10.31q100.84,0,201.69,0h9.6Z" transform="translate(1863.33 198.25)"/><path class="cls-4" d="M1964.74,551c2.25-3,4-5.49,5.84-7.87q42.9-55.15,85.83-110.29c1.37-1.76,2.72-3.54,4.13-5.27a3.75,3.75,0,0,0,0-5.27c-1.4-1.74-2.73-3.53-4.1-5.29l-86.85-111.61c-1.2-1.54-2.4-3.08-3.54-4.66-0.48-.67-1-1.59-0.26-2.26a4.63,4.63,0,0,1,2.17-.75,8.25,8.25,0,0,1,1.67,0c17.58,0,35.15.12,52.73-.09,4.14-.05,6.62,1.6,9,4.69q27.43,35.38,55.11,70.57c2.55,3.25,4.56,7,8.1,9.4,4.33-1.91,6.14-6.19,8.8-9.58q26.89-34.21,53.53-68.62c0.86-1.1,1.78-2.16,2.56-3.31a6.91,6.91,0,0,1,6.4-3.09c9.2,0.12,18.41,0,27.62,0q14.23,0,28.45.05c0.76,0,1.87-.15,2,1a3.61,3.61,0,0,1-.59,2.26c-2.32,3.14-4.74,6.21-7.14,9.29q-41.89,53.82-83.78,107.64c-6.28,8.08-5.95,6.28-.07,13.84q43.13,55.51,86.34,111,2.57,3.3,5,6.68a1.48,1.48,0,0,1-1.08,2.41c-1.39.09-2.79,0.11-4.18,0.11-16.74,0-33.48-.15-50.21.11-4.66.07-7.65-1.37-10.51-5.09-18.53-24.11-37.28-48-56-72-7.67-9.82-6.09-9.69-13.46-.29q-27.36,34.9-54.62,69.89c-1.2,1.54-2.52,3-3.62,4.6a6.24,6.24,0,0,1-5.67,2.81c-19.24-.11-38.48-0.14-57.73-0.22A10.64,10.64,0,0,1,1964.74,551Z" transform="translate(1863.33 198.25)"/><path class="cls-4" d="M1063.4,321.36c2.27-2,3.34-2.89,4.3-3.85,13.92-13.91,30.88-22,50.16-24.68,23-3.26,45.69-1.32,67.3,7.89,26.13,11.14,45.43,29.84,59.28,54.42a21.75,21.75,0,0,1,1.45,3,2.34,2.34,0,0,1-.87,2.93c-0.91.64-1.85,1.25-2.81,1.8q-18.12,10.44-36.26,20.85a15.63,15.63,0,0,1-2.34.89c-2.7-1.53-3.2-4.5-4.59-6.82-9.75-16.24-23.28-27.64-41.73-32.65a76.71,76.71,0,0,0-44.54,1c-16.37,5.31-28.49,16.08-37.46,30.54a81.8,81.8,0,0,0-11.91,37.07c-0.4,5-.42,10-0.43,15.05q-0.05,56.07,0,112.14c0,12.41,1.47,10.87-11.33,10.94q-17.57.1-35.15,0c-3.9,0-4.38-.59-4.54-4.29-0.08-2,0-3.91,0-5.86q0-116.75,0-233.49c0-2,0-3.91,0-5.86,0.14-4,.6-4.63,4.22-4.65q21.34-.11,42.68,0c3.27,0,4,.77,4.08,3.92,0.12,4.18,0,8.37.08,12.55C1063,316.07,1063.18,317.94,1063.4,321.36Z" transform="translate(1863.33 198.25)"/><path class="cls-4" d="M82.23,451.34q0,45.17,0,90.34c0,2.51,0,5-.14,7.52a2.58,2.58,0,0,1-2.65,2.6,16.12,16.12,0,0,1-1.67.09c-13.94,0-27.88,0-41.82,0-3.81,0-4.21-.52-4.35-4.41-0.09-2.51,0-5,0-7.53q0-90.34,0-180.67c0-11.5,1.15-10.42-10.16-10.47-7.81,0-15.61,0-23.42,0-3.89,0-4.6-.65-4.62-4.2q-0.1-21.33,0-42.66c0-3.53.73-4.14,4.63-4.18,8.64-.08,17.29-0.06,25.93,0,7.88,0,7.66,0,7.65-8q0-29.28,0-58.55c0-2.23,0-4.46.13-6.69a2.53,2.53,0,0,1,2.58-2.64c0.56,0,1.11-.1,1.67-0.1,13.94,0,27.88,0,41.82,0,3.88,0,4.4.54,4.42,4.33,0.06,16.17,0,32.34,0,48.51,0,6.13-.05,12.27,0,18.4,0.06,4.24.43,4.6,4.95,4.66,7.53,0.09,15.06,0,22.58,0,2.23,0,4.46,0,6.69.06,3.07,0.14,3.82.83,3.83,4.16q0.1,21.33,0,42.66c0,3.6-.68,4.16-4.66,4.2-8.36.08-16.73,0-25.09,0-8.86,0-8.33-.27-8.33,8Q82.22,404.08,82.23,451.34Z" transform="translate(1863.33 198.25)"/><path class="cls-4" d="M515.56,387.78q0,77.39,0,154.77c0,10.27.78,9.32-9.58,9.35q-17.15,0-34.3,0c-7.12,0-7.13-.08-7.2-7.55,0-1.12,0-2.23,0-3.35q0-154.35,0-308.71c0-2.51,0-5,.11-7.53,0.06-2,1.29-3,3.21-3,4.46-.06,8.92-0.07,13.38-0.08,9.2,0,18.41,0,27.61,0,6.68,0,6.68.09,6.77,7.12,0,2,0,3.9,0,5.86v153.1Z" transform="translate(1863.33 198.25)"/><path class="cls-3" d="M635.05,386.85q0,77.83,0,155.67c0,10.36.9,9.33-9.47,9.37-10.88,0-21.76,0-32.64,0-2,0-3.9,0-5.85-.14a2.5,2.5,0,0,1-2.55-2.67c-0.09-2.23-.12-4.46-0.12-6.69q0-155.67,0-311.34c0-10.33-1-9.33,9.47-9.36q18.41-.06,36.83,0c3.77,0,4.18.54,4.31,4.42,0.08,2.23,0,4.46,0,6.69Q635.06,309.85,635.05,386.85Z" transform="translate(1863.33 198.25)"/><path class="cls-4" d="M-480,411.13q0,172.82,0,345.63c0,2.79.09,5.59-.15,8.36a6.14,6.14,0,0,1-5.95,5.85,6.1,6.1,0,0,1-6.05-5.73c-0.25-2.77-.15-5.57-0.15-8.36q0-286.21,0-572.43,0-60.26,0-120.51a61.09,61.09,0,0,1,.23-7.52,6.22,6.22,0,0,1,5.85-5.05,6.12,6.12,0,0,1,5.93,4.94,66.77,66.77,0,0,1,.29,8.35q0,138.09,0,276.17Q-480,376-480,411.13Z" transform="translate(1863.33 198.25)"/><path class="cls-5" d="M-685.18,317C-686,424.79-773.37,504.13-873,503.86c-103.86-.29-186.53-84.48-186.48-187.24,0-106,86.35-186.61,186.87-186.88C-770.86,129.45-686,211.24-685.18,317Z" transform="translate(1863.33 198.25)"/><path class="cls-5" d="M-1112.27,643.08c1.83,67.76-49.6,124-117.48,127.8C-1298,774.72-1357.2,723-1360.33,652.2c-3.08-69.62,50.2-124.31,115.21-128.9C-1174.67,518.33-1115.15,572.23-1112.27,643.08Z" transform="translate(1863.33 198.25)"/><path class="cls-5" d="M-1272.78,25.31A91.84,91.84,0,0,1-1182,119.48a91.71,91.71,0,0,1-93.38,89.94c-54.71-.79-92-46.4-90.86-94.19A92.19,92.19,0,0,1-1272.78,25.31Z" transform="translate(1863.33 198.25)"/><path class="cls-5" d="M-1536.11,333.91c31.25-.48,59.7,26.1,59.64,60.5-0.05,30.07-24.06,59.83-60.47,59.77s-60.54-30.12-60-61C-1596.42,357.87-1566.61,332.88-1536.11,333.91Z" transform="translate(1863.33 198.25)"/><path class="cls-5" d="M-1215.31,510.3a27.38,27.38,0,0,1,0,3,1.62,1.62,0,0,1-1.63,1.5,32.93,32.93,0,0,1-4.17-.27c-8.89-1-17.77-1.51-26.7-.37-2.57.33-3.58-.56-3.76-3.22-0.78-11.41-1.44-22.83-2.17-34.24q-2.25-35.07-4.53-70.15c-0.65-10-1.31-20-1.93-30.06q-2.86-46.36-5.7-92.71c-1.26-20-2.64-40.08-4-60.12-0.06-.83-0.1-1.67-0.11-2.5a2.5,2.5,0,0,1,2.45-2.76c3-.4,6.09-0.74,9.11-1.23,2.75-.44,5.47-1,8.19-1.6,4.16-.88,4.48-0.71,5,4q3.38,32.45,6.7,64.91c2.51,24.13,5.1,48.25,7.6,72.39,1.92,18.59,3.73,37.18,5.64,55.77,2,19.14,4,38.28,6,57.42C-1218,483.07-1216.75,496.11-1215.31,510.3Z" transform="translate(1863.33 198.25)"/><path class="cls-5" d="M-1126.15,571.71c-7.66-10.06-15.53-19.76-25.1-27.31-0.2-2.51,1.38-3.47,2.45-4.66q52-57.16,104.07-114.3c5.84-6.41,5.12-5.46,9.15.48A193.14,193.14,0,0,0-1007,459.61c1.64,1.51,3.2,3.1,4.73,4.72s1.47,2.41-.38,4.1c-0.82.75-1.7,1.44-2.55,2.16l-115.29,96.57C-1122.2,568.58-1124,569.94-1126.15,571.71Z" transform="translate(1863.33 198.25)"/><path class="cls-5" d="M-1353.34,180.65c6.37,7.78,13.53,14,20.93,19.84-4.41,5.61-138.27,132.23-153.65,145.36-2.46-2-5-4-7.56-6-2.4-1.87-4.84-3.68-6.94-5.27a4.19,4.19,0,0,1-.39-1.23,1.48,1.48,0,0,1,.45-0.69q72.27-75.08,144.56-150.14A19.77,19.77,0,0,1-1353.34,180.65Z" transform="translate(1863.33 198.25)"/><path class="cls-6" d="M906,425.11c0.55,43-35,82.31-82.37,82.53-46.18.21-83.09-37.72-83.06-82.78,0-46.36,39.07-82.9,83.31-82.56C868.79,342.63,906.56,380.09,906,425.11Z" transform="translate(1863.33 198.25)"/><path class="cls-6" d="M292.37,342.46a81.26,81.26,0,0,1,46.49,14c1.38,0.94,2.74,1.93,4,3,3.26,2.58,3.24,3.38,0,5.44-0.94.59-1.93,1.12-2.89,1.68L218.32,436.77c-0.48.28-.95,0.59-1.44,0.86-5.13,2.82-5.27,2.74-6.18-2.79-2-12.1-.5-23.94,3.16-35.49C224.61,365.52,256.51,342.51,292.37,342.46Z" transform="translate(1863.33 198.25)"/><path class="cls-6" d="M1795.73,342.48c44.28-1,82.74,36.46,83,81.88,0.27,44.77-36.39,83.16-82.63,83.28-47,.12-83.08-38.92-83-82.89C1713.2,379.67,1751.13,341.65,1795.73,342.48Z" transform="translate(1863.33 198.25)"/></svg>
