<svg xmlns="http://www.w3.org/2000/svg" viewBox="0 0 92.890235 24.494523" style="width: 100px;">
  <g transform="translate(69.615056,-140.32149)">
    <g transform="matrix(0.35277777,0,0,-0.35277777,-70.548786,163.69422)">
      <g>
        <g>
          <g transform="translate(42.2798,23.6577)">
            <path style="fill: rgb(77,186,232);"
               d="m 0,0 c 0,-3.099 -0.782,-5.751 -2.347,-7.956 -1.564,-2.205 -3.784,-3.888 -6.659,-5.05 -2.875,-1.162 -6.161,-1.743 -9.855,-1.743 -9.803,0 -16.477,2.727 -20.022,8.179 l 8.581,6.033 c 1.4,-1.906 3.017,-3.18 4.849,-3.82 1.832,-0.642 3.791,-0.961 5.877,-0.961 5.482,0 8.224,1.593 8.224,4.781 0,1.401 -0.775,2.481 -2.324,3.241 -1.55,0.76 -3.978,1.542 -7.285,2.346 -6.228,1.37 -10.608,3.307 -13.14,5.81 -2.533,2.503 -3.799,5.75 -3.799,9.744 0,4.141 1.587,7.553 4.76,10.234 3.173,2.682 7.844,4.022 14.011,4.022 4.201,0 7.903,-0.67 11.107,-2.011 3.202,-1.341 5.668,-3.351 7.396,-6.033 l -8.625,-6.123 c -2.057,3.158 -5.409,4.737 -10.057,4.737 -2.384,0 -4.186,-0.409 -5.407,-1.229 -1.222,-0.82 -1.833,-1.87 -1.833,-3.151 0,-1.222 0.551,-2.197 1.654,-2.927 1.102,-0.73 3.277,-1.497 6.525,-2.302 5.333,-1.311 9.14,-2.614 11.419,-3.91 2.28,-1.296 4.007,-2.906 5.184,-4.827 C -0.589,5.162 0,2.8 0,0" />
          </g>
          <g transform="translate(77.3638,10.2944)">
            <path style="fill: rgb(77,186,232);"
               d="m 0,0 c -3.099,-0.923 -6.362,-1.385 -9.788,-1.385 -5.423,0 -9.326,1.221 -11.709,3.664 -2.384,2.443 -3.576,6.406 -3.576,11.888 v 23.554 h -5.944 v 9.162 h 5.944 v 13.051 h 11.531 V 46.883 H -2.637 V 37.721 H -13.542 V 15.643 c 0,-2.921 0.454,-4.902 1.363,-5.945 0.909,-1.043 2.197,-1.564 3.866,-1.564 2.115,0 4.216,0.432 6.302,1.296 z" />
          </g>
          <g transform="translate(112.8057,38.6743)">
            <path style="fill: rgb(77,186,232);"
               d="m 0,0 c 0,7.121 -3.114,10.682 -9.341,10.682 -2.056,0 -3.74,-0.351 -5.051,-1.051 -1.311,-0.7 -2.361,-1.742 -3.15,-3.128 C -18.332,5.118 -18.95,2.95 -19.397,0 Z m -19.71,-7.955 c 0.208,-4.172 1.222,-7.167 3.039,-8.983 1.817,-1.818 4.678,-2.727 8.581,-2.727 2.264,0 4.253,0.283 5.967,0.85 1.713,0.565 3.21,1.653 4.492,3.262 l 8.581,-6.123 c -1.878,-2.712 -4.313,-4.738 -7.308,-6.078 -2.994,-1.341 -7.083,-2.011 -12.268,-2.011 -7.717,0 -13.475,2.025 -17.274,6.078 -3.799,4.052 -5.698,10.174 -5.698,18.369 0,16.774 7.508,25.162 22.525,25.162 6.674,0 11.761,-1.885 15.263,-5.654 3.5,-3.769 5.251,-9.259 5.251,-16.469 v -5.676 z" />
          </g>
          <path style="fill: rgb(77,186,232);"
             d="m 134.66,76.842 h 11.531 V 10.294 H 134.66 Z" />
          <path style="fill: rgb(77,186,232);"
             d="m 159.197,76.842 h 11.531 V 10.294 h -11.531 z" />
          <g transform="translate(210.4595,32.0601)">
            <path style="fill: rgb(77,186,232);"
               d="m 0,0 -5.855,-0.537 c -4.142,-0.357 -7.128,-1.147 -8.961,-2.368 -1.832,-1.222 -2.748,-3.054 -2.748,-5.497 0,-2.146 0.595,-3.614 1.787,-4.403 1.192,-0.789 2.771,-1.184 4.738,-1.184 1.4,0 3.106,0.439 5.117,1.319 2.011,0.878 3.985,2.122 5.922,3.731 z m 0.938,-21.766 v 4.872 c -4.558,-4.172 -9.445,-6.257 -14.659,-6.257 -5.184,0 -9.103,1.363 -11.754,4.089 -2.652,2.727 -3.978,6.22 -3.978,10.481 0,3.336 0.678,6.093 2.034,8.268 1.355,2.175 3.366,3.881 6.033,5.117 2.666,1.237 6.503,2.108 11.509,2.615 L 0,8.357 v 2.101 c 0,2.622 -0.79,4.417 -2.369,5.386 -1.579,0.968 -3.888,1.452 -6.927,1.452 -2.503,0 -4.656,-0.418 -6.458,-1.251 -1.804,-0.835 -3.137,-2.027 -4,-3.576 l -8.984,5.766 c 1.579,2.651 4.052,4.685 7.419,6.1 3.367,1.415 7.434,2.123 12.201,2.123 7.3,0 12.566,-1.273 15.8,-3.821 3.232,-2.548 4.849,-6.726 4.849,-12.536 v -31.867 z" />
          </g>
          <g transform="translate(262.9287,45.9146)">
            <path style="fill: rgb(77,186,232);"
               d="m 0,0 c -1.192,0.596 -2.771,0.894 -4.737,0.894 -2.145,0 -4.179,-0.514 -6.101,-1.542 -1.922,-1.028 -3.896,-2.525 -5.922,-4.492 V -35.62 H -28.291 V 11.263 H -16.76 V 4.559 c 1.967,2.145 4.082,3.918 6.347,5.318 2.264,1.4 4.796,2.101 7.598,2.101 2.383,0 4.081,-0.313 5.094,-0.938 z" />
          </g>
        </g>
      </g>
    </g>
  </g>
</svg>
